<svg xmlns="http://www.w3.org/2000/svg" viewBox="0 0 256 256"><rect width="256" height="256" fill="none"/><path d="M192,104a39.67,39.67,0,0,0-15.19-31.29A40,40,0,0,0,109.81,59.35a31.33,31.33,0,0,0-5.81,62.11v2.36a32,32,0,0,0,32,32H168a40,40,0,0,0,24-72A39.42,39.42,0,0,0,192,104Z" fill="#a855f7" opacity="0.2"/><path d="M203.49,103.54a40,40,0,0,0-58-34.78,39.9,39.9,0,0,0-35,0A40,40,0,0,0,52.51,103.54a40,40,0,0,0,1.36,51,40,40,0,1,0,58.13,35h32a40,40,0,1,0,58.13-35A40,40,0,0,0,203.49,103.54Z" fill="#a855f7"/></svg>
